<svg width="40" height="45" viewBox="0 0 40 45" fill="none" xmlns="http://www.w3.org/2000/svg">
<path fill-rule="evenodd" clip-rule="evenodd" d="M10.0282 34.3317C9.24178 33.869 8.47109 33.4223 7.68466 32.9595C7.35436 32.7681 7.07125 32.5926 6.8196 32.4171L1.00006 28.9388C0.968601 32.9436 1.36181 33.8211 4.49178 35.672C8.29807 37.9217 12.1358 40.0916 15.9421 42.3733C16.1938 42.5328 16.4454 42.6605 16.6814 42.8041C19.89 44.639 20.7865 44.3837 24.6242 42.0542C26.8105 40.7299 29.0911 39.4534 31.3246 38.161C32.9446 37.2356 34.5646 36.2942 36.106 35.321C38.6855 33.7095 39.0315 32.6883 39.0001 29.0345C39.0001 29.0185 39.0001 29.0026 39.0001 28.9866L32.3312 32.9915C32.2368 33.0553 32.1424 33.1031 32.0481 33.151C31.4661 33.502 30.8842 33.8531 30.2865 34.2041L27.6441 35.7837C27.6598 35.7518 27.6756 35.7198 27.6913 35.6879C26.3386 36.4697 24.986 37.2356 23.6648 38.0334C20.409 40.0278 19.8113 40.1076 16.7757 38.2887C14.5266 36.9484 12.2774 35.6401 10.0282 34.3317ZM36.0903 27.3911C38.5439 25.8434 38.9686 24.8542 38.9843 21.5992C38.9843 21.4397 38.9843 21.2642 38.9843 21.1046C38.9843 21.0887 38.9843 21.0568 38.9843 21.0408L35.0679 23.3863L32.7716 24.7584C32.5199 24.918 32.284 25.0616 32.0323 25.2211C31.2459 25.6998 30.4595 26.1625 29.6573 26.6252L28.116 27.5506C28.116 27.5347 28.116 27.5187 28.116 27.5028C26.6217 28.3484 25.1118 29.21 23.6491 30.1035C20.3933 32.082 19.7956 32.1777 16.76 30.3588C11.5224 27.2156 6.30056 24.0883 1.04724 20.9451C1.04724 21.679 1.04724 22.413 1.04724 23.1469C1.25171 25.3967 2.00668 26.2742 4.47605 27.7261C4.61761 27.8059 4.75916 27.8857 4.90072 27.9814C8.56546 30.1514 12.2459 32.2256 15.9107 34.4274C19.7327 36.7091 20.4719 36.5974 24.577 34.0924C25.7252 33.3903 26.9206 32.7043 28.1002 32.0182C29.4057 31.2683 30.7112 30.5343 32.0009 29.7844C33.0232 29.1941 34.0613 28.5877 35.0522 27.9814C35.4297 27.8059 35.76 27.5985 36.0903 27.3911ZM35.0837 9.0742C31.2145 6.82448 27.3453 4.52689 23.4918 2.27717C20.0944 0.314642 19.2608 0.585885 15.1557 3.10685C11.9785 5.03746 8.84857 6.85639 5.62423 8.69127L5.56132 8.70722L5.40403 8.787C5.24675 8.88273 5.08946 8.96251 4.93218 9.05824L4.90072 9.0742C4.71198 9.18589 4.53897 9.28162 4.36595 9.39331C2.96612 10.2389 2.13251 10.8931 1.64493 11.7388C0.952873 12.9514 0.889959 15.1054 1.33036 16.4456C1.66065 17.4508 2.27406 18.1369 3.43797 18.9187C3.75254 19.1261 4.09857 19.3495 4.49178 19.5729C4.63334 19.6527 4.77489 19.7484 4.91645 19.8282L4.94791 19.8441C8.59691 22.0141 12.2774 24.0883 15.9264 26.2742C19.7484 28.5558 20.4876 28.4441 24.5928 25.9391C25.741 25.2371 26.9363 24.551 28.1317 23.8649C29.4371 23.115 30.7426 22.3811 32.0323 21.6312C32.0323 21.1525 32.0323 20.6738 32.0323 20.1952C32.0323 18.9028 31.9537 17.9774 31.7178 17.2274C31.2931 15.8872 30.3337 15.1373 28.3204 13.9406L21.0224 9.63264C20.4405 9.29757 20.4719 9.31353 19.5754 9.88793L18.7575 10.4145C17.8453 11.0048 17.9396 12.4089 18.7732 12.9195C20.9123 14.18 23.0514 15.4404 25.1905 16.685C26.8734 17.6742 27.6126 18.2965 27.9429 19.4453C26.5116 20.259 25.0646 21.0727 23.6805 21.9343C20.4247 23.9128 19.827 24.0085 16.7915 22.1896C13.7401 20.3866 10.7045 18.6634 7.68466 16.8605C6.99261 16.4456 6.45784 16.0946 6.06463 15.7276C5.23102 14.9458 4.96363 14.4352 5.7186 13.5258C6.23764 12.9035 7.07125 12.361 8.4239 11.5952C11.0348 10.1432 13.5828 8.67531 16.1466 7.11167C16.2252 7.06381 16.3039 7.01594 16.3825 6.96808C19.4338 5.10128 20.1416 4.94173 22.7683 6.4575C25.8825 8.26047 29.0125 10.1273 32.1267 11.9462C35.8229 14.1002 35.1623 15.951 35.3353 19.7005C35.6814 19.4931 35.7443 19.4453 36.0903 19.2378C38.2608 17.8657 38.8428 16.9402 38.9686 14.4671C38.8428 11.7228 38.1193 10.8772 35.2724 9.2178C35.2095 9.15398 35.1466 9.12206 35.0837 9.0742Z" fill="#234DD4"/>
</svg>
