<svg width="39" height="45" viewBox="0 0 39 45" fill="none" xmlns="http://www.w3.org/2000/svg">
<path fill-rule="evenodd" clip-rule="evenodd" d="M9.02979 34.3317C8.24337 33.869 7.47267 33.4223 6.68625 32.9595C6.35595 32.7681 6.07284 32.5926 5.82118 32.4171L0.001645 28.9388C-0.029812 32.9436 0.3634 33.8211 3.49337 35.672C7.29966 37.9217 11.1374 40.0916 14.9437 42.3733C15.1954 42.5328 15.447 42.6605 15.6829 42.8041C18.8915 44.639 19.7881 44.3837 23.6258 42.0542C25.8121 40.7299 28.0927 39.4534 30.3262 38.161C31.9462 37.2356 33.5662 36.2942 35.1076 35.321C37.6871 33.7095 38.0331 32.6883 38.0016 29.0345C38.0016 29.0185 38.0016 29.0026 38.0016 28.9866L31.3328 32.9915C31.2384 33.0553 31.144 33.1031 31.0497 33.151C30.4677 33.502 29.8858 33.8531 29.2881 34.2041L26.6457 35.7837C26.6614 35.7518 26.6771 35.7198 26.6929 35.6879C25.3402 36.4697 23.9876 37.2356 22.6664 38.0334C19.4106 40.0278 18.8129 40.1076 15.7773 38.2887C13.5281 36.9484 11.279 35.6401 9.02979 34.3317ZM35.0919 27.3911C37.5455 25.8434 37.9702 24.8542 37.9859 21.5992C37.9859 21.4397 37.9859 21.2642 37.9859 21.1046C37.9859 21.0887 37.9859 21.0568 37.9859 21.0408L34.0695 23.3863L31.7732 24.7584C31.5215 24.918 31.2856 25.0616 31.0339 25.2211C30.2475 25.6998 29.4611 26.1625 28.6589 26.6252L27.1175 27.5506C27.1175 27.5347 27.1175 27.5187 27.1175 27.5028C25.6233 28.3484 24.1134 29.21 22.6507 30.1035C19.3949 32.082 18.7972 32.1777 15.7616 30.3588C10.524 27.2156 5.30214 24.0883 0.0488304 20.9451C0.0488304 21.679 0.0488304 22.413 0.0488304 23.1469C0.253301 25.3967 1.00827 26.2742 3.47764 27.7261C3.61919 27.8059 3.76075 27.8857 3.90231 27.9814C7.56704 30.1514 11.2475 32.2256 14.9122 34.4274C18.7343 36.7091 19.4735 36.5974 23.5786 34.0924C24.7268 33.3903 25.9222 32.7043 27.1018 32.0182C28.4073 31.2683 29.7127 30.5343 31.0025 29.7844C32.0248 29.1941 33.0629 28.5877 34.0538 27.9814C34.4313 27.8059 34.7616 27.5985 35.0919 27.3911ZM34.0853 9.0742C30.216 6.82448 26.3468 4.52689 22.4934 2.27717C19.096 0.314642 18.2624 0.585885 14.1573 3.10685C10.9801 5.03746 7.85016 6.85639 4.62582 8.69127L4.5629 8.70722L4.40562 8.787C4.24833 8.88273 4.09105 8.96251 3.93376 9.05824L3.90231 9.0742C3.71357 9.18589 3.54055 9.28162 3.36754 9.39331C1.9677 10.2389 1.1341 10.8931 0.646513 11.7388C-0.0455404 12.9514 -0.108454 15.1054 0.331943 16.4456C0.662241 17.4508 1.27565 18.1369 2.43956 18.9187C2.75413 19.1261 3.10016 19.3495 3.49337 19.5729C3.63492 19.6527 3.77648 19.7484 3.91804 19.8282L3.94949 19.8441C7.5985 22.0141 11.279 24.0883 14.928 26.2742C18.75 28.5558 19.4892 28.4441 23.5944 25.9391C24.7425 25.2371 25.9379 24.551 27.1333 23.8649C28.4387 23.115 29.7442 22.3811 31.0339 21.6312C31.0339 21.1525 31.0339 20.6738 31.0339 20.1952C31.0339 18.9028 30.9553 17.9774 30.7194 17.2274C30.2947 15.8872 29.3353 15.1373 27.322 13.9406L20.024 9.63264C19.442 9.29757 19.4735 9.31353 18.577 9.88793L17.7591 10.4145C16.8468 11.0048 16.9412 12.4089 17.7748 12.9195C19.9139 14.18 22.053 15.4404 24.192 16.685C25.875 17.6742 26.6142 18.2965 26.9445 19.4453C25.5132 20.259 24.0662 21.0727 22.6821 21.9343C19.4263 23.9128 18.8286 24.0085 15.793 22.1896C12.7417 20.3866 9.70612 18.6634 6.68625 16.8605C5.9942 16.4456 5.45943 16.0946 5.06622 15.7276C4.23261 14.9458 3.96522 14.4352 4.72019 13.5258C5.23923 12.9035 6.07284 12.361 7.42549 11.5952C10.0364 10.1432 12.5844 8.67531 15.1482 7.11167C15.2268 7.06381 15.3055 7.01594 15.3841 6.96808C18.4354 5.10128 19.1432 4.94173 21.7699 6.4575C24.8841 8.26047 28.0141 10.1273 31.1283 11.9462C34.8245 14.1002 34.1639 15.951 34.3369 19.7005C34.6829 19.4931 34.7459 19.4453 35.0919 19.2378C37.2624 17.8657 37.8444 16.9402 37.9702 14.4671C37.8444 11.7228 37.1208 10.8772 34.274 9.2178C34.2111 9.15398 34.1482 9.12206 34.0853 9.0742Z" fill="white"/>
</svg>
