<svg width="35" height="35" viewBox="0 0 35 35" fill="none" xmlns="http://www.w3.org/2000/svg">
<rect width="35" height="35" rx="17.5" fill="#DD3333"/>
<path d="M14.4531 15.1133C14.7336 15.1133 14.9609 14.8859 14.9609 14.6055V11.5078C14.9609 11.2273 14.7336 11 14.4531 11C14.1727 11 13.9453 11.2273 13.9453 11.5078V14.6055C13.9453 14.8859 14.1727 15.1133 14.4531 15.1133Z" fill="white"/>
<path d="M16.3574 11C16.077 11 15.8496 11.2273 15.8496 11.5078V14.6816C15.8496 15.4517 15.2231 16.0781 14.4531 16.0781C13.6831 16.0781 13.0566 15.4517 13.0566 14.6816V11.5078C13.0566 11.2273 12.8293 11 12.5488 11C12.2684 11 12.041 11.2273 12.041 11.5078V14.6816C12.041 15.8375 12.8583 16.8059 13.9453 17.0398V23.4922C13.9453 23.7727 14.1727 24 14.4531 24C14.7336 24 14.9609 23.7727 14.9609 23.4922V17.0398C16.0479 16.8059 16.8652 15.8375 16.8652 14.6816V11.5078C16.8652 11.2273 16.6379 11 16.3574 11Z" fill="white"/>
<path d="M22.3386 12.3545C21.8594 11.481 21.2231 11 20.5469 11C19.8706 11 19.2343 11.481 18.7551 12.3545C18.3667 13.0626 18.1348 13.9325 18.1348 14.6816C18.1348 15.8375 18.9521 16.8059 20.0391 17.0398V23.4922C20.0391 23.7727 20.2664 24 20.5469 24C20.8273 24 21.0547 23.7727 21.0547 23.4922V17.0398C22.1417 16.8059 22.959 15.8375 22.959 14.6816C22.959 13.9325 22.7271 13.0626 22.3386 12.3545ZM20.5469 16.0781C19.7769 16.0781 19.1504 15.4517 19.1504 14.6816C19.1504 14.1043 19.3401 13.3997 19.6455 12.843C19.9255 12.3327 20.2709 12.0156 20.5469 12.0156C20.8228 12.0156 21.1682 12.3327 21.4482 12.843C21.7536 13.3997 21.9434 14.1043 21.9434 14.6816C21.9434 15.4517 21.3169 16.0781 20.5469 16.0781Z" fill="white"/>
</svg>
