<svg width="35" height="35" viewBox="0 0 35 35" fill="none" xmlns="http://www.w3.org/2000/svg">
<rect width="35" height="35" rx="17.5" fill="#DD9933"/>
<g clip-path="url(#clip0)">
<path d="M23.9798 23.4671C23.9591 23.4036 24.3757 24.1274 17.9706 13.1473L18.8668 11.611C18.9799 11.4172 18.9144 11.1684 18.7206 11.0554C18.5269 10.9424 18.2781 11.0078 18.165 11.2016L17.5003 12.3411L16.8356 11.2016C16.7226 11.0078 16.4738 10.9424 16.28 11.0554C16.0862 11.1684 16.0208 11.4172 16.1339 11.611L17.03 13.1473C10.6246 24.128 11.0415 23.4037 11.0208 23.4672C10.9416 23.7092 11.1033 23.9673 11.3605 23.9968C11.3965 24.0008 23.5947 24.001 23.6304 23.9978C23.8887 23.9746 24.0613 23.7165 23.9798 23.4671ZM22.8589 23.1397C20.0689 22.7781 17.9066 20.3868 17.9066 17.4998V14.6499L22.8589 23.1397ZM17.0941 14.6499V17.4998C17.0941 20.3868 14.9318 22.7781 12.1417 23.1397L17.0941 14.6499ZM14.5587 23.1871C15.8905 22.4465 16.9552 21.2356 17.5003 19.7702C18.0446 21.2333 19.1079 22.4453 20.4419 23.1871H14.5587Z" fill="white"/>
</g>
<defs>
<clipPath id="clip0">
<rect width="13" height="13" fill="white" transform="translate(11 11)"/>
</clipPath>
</defs>
</svg>
