<svg width="25" height="24" viewBox="0 0 25 24" fill="none" xmlns="http://www.w3.org/2000/svg">
<g clip-path="url(#clip0)">
<path d="M21.1173 9.30752L7.33604 0.81248C6.33899 0.198657 5.13354 0.173136 4.11138 0.744212C3.08923 1.3152 2.479 2.35522 2.479 3.52603V20.4387C2.479 22.2091 3.90544 23.657 5.65863 23.6666C5.66342 23.6666 5.6682 23.6667 5.6729 23.6667C6.22078 23.6666 6.79171 23.4949 7.32496 23.1695C7.75394 22.9078 7.88952 22.3479 7.6278 21.9189C7.36607 21.4899 6.80607 21.3544 6.37723 21.6161C6.12781 21.7682 5.88422 21.8469 5.66843 21.8469C5.00694 21.8433 4.29869 21.2766 4.29869 20.4388V3.52608C4.29869 3.02382 4.56046 2.5778 4.99887 2.33284C5.43733 2.08789 5.95436 2.09882 6.38151 2.36183L20.1628 10.8569C20.577 11.1119 20.8141 11.5371 20.8131 12.0236C20.8121 12.51 20.5733 12.9343 20.1568 13.1884L10.1929 19.2892C9.76431 19.5516 9.62959 20.1117 9.892 20.5403C10.1544 20.9688 10.7145 21.1035 11.1431 20.8411L21.1058 14.7411C22.0597 14.1592 22.6306 13.1447 22.6328 12.0272C22.6351 10.9099 22.0684 9.89304 21.1173 9.30752Z" fill="#222222"/>
</g>
<defs>
<clipPath id="clip0">
<rect width="23.3333" height="23.3333" fill="white" transform="translate(0.888916 0.333313)"/>
</clipPath>
</defs>
</svg>
