<svg width="430" height="487" viewBox="0 0 430 487" fill="none" xmlns="http://www.w3.org/2000/svg">
<path opacity="0.02" fill-rule="evenodd" clip-rule="evenodd" d="M102.17 377.42C93.2716 372.183 84.5514 367.126 75.6532 361.889C71.916 359.722 68.7126 357.736 65.8652 355.749L0.0186127 316.382C-0.337315 361.709 4.11178 371.641 39.5266 392.589C82.5938 418.052 126.017 442.612 169.084 468.436C171.932 470.241 174.779 471.686 177.448 473.311C213.753 494.079 223.897 491.19 267.32 464.824C292.057 449.835 317.862 435.388 343.133 420.761C361.463 410.287 379.793 399.632 397.234 388.616C426.42 370.377 430.335 358.819 429.979 317.465C429.979 317.284 429.979 317.104 429.979 316.923L354.522 362.251C353.455 362.973 352.387 363.515 351.319 364.056C344.734 368.029 338.15 372.002 331.387 375.975L301.489 393.853C301.667 393.492 301.845 393.131 302.023 392.77C286.718 401.618 271.413 410.287 256.464 419.316C219.626 441.889 212.863 442.792 178.516 422.205C153.067 407.036 127.619 392.228 102.17 377.42ZM397.056 298.865C424.818 281.348 429.623 270.151 429.801 233.312C429.801 231.506 429.801 229.519 429.801 227.713C429.801 227.533 429.801 227.172 429.801 226.991L385.488 253.537L359.505 269.068C356.658 270.874 353.989 272.499 351.141 274.305C342.243 279.722 333.345 284.959 324.269 290.196L306.828 300.67C306.828 300.49 306.828 300.309 306.828 300.129C289.922 309.7 272.837 319.451 256.286 329.564C219.448 351.957 212.685 353.041 178.338 332.454C119.076 296.878 59.9924 261.483 0.552504 225.908C0.552504 234.215 0.552504 242.522 0.552504 250.829C2.86603 276.291 11.4083 286.224 39.3486 302.657C40.9503 303.56 42.5519 304.463 44.1536 305.546C85.6192 330.106 127.263 353.582 168.728 378.503C211.973 404.327 220.338 403.063 266.786 374.711C279.778 366.765 293.303 359 306.65 351.235C321.421 342.747 336.192 334.44 350.785 325.953C362.353 319.271 374.098 312.409 385.31 305.546C389.581 303.56 393.319 301.212 397.056 298.865ZM385.666 91.5509C341.887 66.0882 298.108 40.0837 254.507 14.621C216.067 -7.59121 206.635 -4.52124 160.186 24.0115C124.237 45.8625 88.8225 66.4494 52.34 87.2169L51.6281 87.3974L49.8485 88.3004C48.0688 89.3839 46.2892 90.2868 44.5096 91.3704L44.1536 91.5509C42.0181 92.8151 40.0605 93.8986 38.1029 95.1627C22.2641 104.734 12.832 112.138 7.31513 121.709C-0.515278 135.434 -1.22713 159.813 3.75585 174.982C7.49309 186.359 14.4337 194.124 27.603 202.973C31.1623 205.321 35.0775 207.849 39.5266 210.377C41.1282 211.28 42.7299 212.364 44.3316 213.266L44.6875 213.447C85.9751 238.007 127.619 261.483 168.906 286.224C212.151 312.047 220.516 310.783 266.964 282.431C279.956 274.485 293.481 266.72 307.006 258.955C321.777 250.467 336.548 242.16 351.141 233.673C351.141 228.255 351.141 222.838 351.141 217.42C351.141 202.792 350.251 192.318 347.582 183.831C342.777 168.662 331.921 160.174 309.142 146.63L226.566 97.8715C219.982 94.0792 220.338 94.2598 210.194 100.761L200.94 106.72C190.618 113.402 191.686 129.294 201.118 135.072C225.321 149.339 249.524 163.605 273.727 177.691C292.769 188.887 301.133 195.93 304.871 208.932C288.676 218.142 272.303 227.352 256.642 237.104C219.804 259.497 213.041 260.58 178.694 239.993C144.169 219.587 109.822 200.084 75.6532 179.677C67.8228 174.982 61.772 171.009 57.3229 166.856C47.8909 158.007 44.8655 152.228 53.4077 141.935C59.2805 134.892 68.7126 128.752 84.0175 120.084C113.559 103.65 142.39 87.0363 171.398 69.3388C172.288 68.797 173.177 68.2552 174.067 67.7135C208.592 46.5848 216.6 44.779 246.32 61.9347C281.557 82.341 316.972 103.47 352.209 124.057C394.03 148.436 386.556 169.384 388.513 211.822C392.429 209.474 393.141 208.932 397.056 206.585C421.615 191.054 428.199 180.58 429.623 152.589C428.199 121.528 420.013 111.957 387.802 93.1762C387.09 92.4539 386.378 92.0927 385.666 91.5509Z" fill="#222222"/>
</svg>
