<svg width="35" height="35" viewBox="0 0 35 35" fill="none" xmlns="http://www.w3.org/2000/svg">
<rect width="35" height="35" rx="17.5" fill="#F4F4F4"/>
<path d="M17.5 9C13.8045 9 10.798 12.0064 10.798 15.7019C10.798 18.005 11.9659 20.0403 13.7403 21.2472V25.5096C13.7403 25.676 13.8247 25.8311 13.9645 25.9214C14.1041 26.0117 14.2802 26.025 14.432 25.9568L17.5 24.5762L20.568 25.9568C20.6322 25.9857 20.7008 26 20.7691 26C20.8622 26 20.9549 25.9735 21.0355 25.9214C21.1752 25.8311 21.2596 25.676 21.2596 25.5096V21.2472C23.034 20.0403 24.2019 18.005 24.2019 15.702C24.2019 12.0064 21.1954 9 17.5 9ZM20.2788 24.7512L17.7012 23.5913C17.6372 23.5625 17.5686 23.5481 17.5 23.5481C17.4314 23.5481 17.3627 23.5625 17.2987 23.5913L14.7211 24.7512V21.8016C14.9676 21.914 15.2206 22.0105 15.4783 22.092C15.4929 22.0966 15.5075 22.1014 15.5222 22.1059C15.5551 22.116 15.5881 22.1258 15.6211 22.1354C15.6456 22.1425 15.6701 22.1496 15.6946 22.1565C15.7213 22.164 15.748 22.1712 15.7748 22.1783C15.806 22.1866 15.8373 22.1948 15.8686 22.2027C15.8908 22.2082 15.913 22.2136 15.9353 22.2189C15.9714 22.2276 16.0076 22.236 16.0439 22.244C16.0627 22.2482 16.0816 22.2524 16.1004 22.2564C16.1402 22.2649 16.1801 22.2729 16.2202 22.2807C16.2365 22.2839 16.2528 22.2871 16.2691 22.2901C16.3116 22.2981 16.3542 22.3055 16.3969 22.3126C16.4115 22.315 16.4262 22.3175 16.4408 22.3199C16.4849 22.3269 16.5292 22.3334 16.5736 22.3395C16.5873 22.3414 16.601 22.3435 16.6148 22.3453C16.6597 22.3512 16.7048 22.3566 16.75 22.3616C16.7634 22.3631 16.7769 22.3648 16.7903 22.3663C16.8354 22.3711 16.8806 22.3751 16.9259 22.379C16.9397 22.3802 16.9534 22.3816 16.9671 22.3827C17.0118 22.3862 17.0567 22.389 17.1016 22.3917C17.116 22.3925 17.1303 22.3936 17.1448 22.3944C17.1902 22.3968 17.2358 22.3984 17.2814 22.3999C17.2951 22.4003 17.3088 22.4011 17.3225 22.4014C17.3815 22.403 17.4407 22.4038 17.5 22.4038C17.5594 22.4038 17.6185 22.403 17.6775 22.4014C17.6912 22.4011 17.7049 22.4003 17.7186 22.3999C17.7642 22.3984 17.8098 22.3968 17.8552 22.3944C17.8696 22.3936 17.884 22.3925 17.8984 22.3917C17.9433 22.389 17.9882 22.3862 18.0329 22.3827C18.0466 22.3816 18.0603 22.3802 18.0741 22.379C18.1194 22.3751 18.1646 22.371 18.2097 22.3663C18.2232 22.3649 18.2366 22.3632 18.25 22.3616C18.2952 22.3566 18.3403 22.3512 18.3852 22.3453C18.399 22.3435 18.4127 22.3414 18.4265 22.3395C18.4708 22.3334 18.5151 22.3269 18.5592 22.3199C18.5738 22.3175 18.5885 22.315 18.6031 22.3126C18.6458 22.3055 18.6884 22.2981 18.7309 22.2901C18.7472 22.2871 18.7635 22.2839 18.7798 22.2807C18.8198 22.2729 18.8598 22.2648 18.8996 22.2564C18.9185 22.2524 18.9373 22.2482 18.9561 22.244C18.9924 22.236 19.0286 22.2276 19.0647 22.2189C19.0869 22.2136 19.1091 22.2082 19.1314 22.2027C19.1627 22.1948 19.194 22.1867 19.2252 22.1783C19.252 22.1711 19.2787 22.164 19.3054 22.1565C19.3299 22.1496 19.3544 22.1425 19.3789 22.1354C19.4119 22.1257 19.445 22.116 19.4778 22.1059C19.4925 22.1013 19.5071 22.0966 19.5217 22.092C19.7794 22.0105 20.0324 21.914 20.2789 21.8016V24.7512H20.2788ZM19.3669 21.11C19.3474 21.1167 19.3278 21.1235 19.3082 21.13C19.2784 21.14 19.2484 21.1498 19.2184 21.1593C19.1834 21.1702 19.1484 21.1808 19.1132 21.1911C19.0884 21.1984 19.0636 21.2057 19.0386 21.2127C18.9921 21.2257 18.9454 21.2381 18.8986 21.2499C18.8811 21.2543 18.8636 21.2585 18.8461 21.2627C18.8002 21.2738 18.7542 21.2844 18.708 21.2943C18.6964 21.2968 18.6849 21.2995 18.6733 21.3019C18.6137 21.3143 18.5539 21.3259 18.4939 21.3365C18.4878 21.3375 18.4817 21.3384 18.4755 21.3395C18.4215 21.3489 18.3673 21.3573 18.3129 21.3651C18.3007 21.3668 18.2884 21.3686 18.2761 21.3703C18.2182 21.3781 18.1601 21.3854 18.1019 21.3915C18.0997 21.3917 18.0975 21.392 18.0953 21.3922C18.0344 21.3986 17.9732 21.4038 17.9119 21.4081C17.8986 21.4091 17.8853 21.4098 17.872 21.4107C17.8243 21.4138 17.7767 21.4162 17.7289 21.4181C17.7127 21.4188 17.6964 21.4195 17.6802 21.42C17.6202 21.4218 17.5601 21.4231 17.5 21.4231C17.4398 21.4231 17.3797 21.4219 17.3197 21.4199C17.3035 21.4194 17.2872 21.4187 17.271 21.4181C17.2232 21.4162 17.1756 21.4137 17.1279 21.4106C17.1146 21.4098 17.1013 21.409 17.088 21.4081C17.0267 21.4037 16.9656 21.3985 16.9046 21.3922C16.9024 21.3919 16.9002 21.3916 16.898 21.3914C16.8398 21.3853 16.7817 21.3781 16.7238 21.3702C16.7115 21.3685 16.6993 21.3668 16.687 21.365C16.6327 21.3572 16.5784 21.3488 16.5244 21.3395C16.5183 21.3384 16.5121 21.3375 16.506 21.3364C16.446 21.3259 16.3862 21.3142 16.3267 21.3018C16.3151 21.2994 16.3035 21.2967 16.2919 21.2943C16.2457 21.2843 16.1997 21.2737 16.1538 21.2626C16.1363 21.2584 16.1188 21.2542 16.1013 21.2498C16.0545 21.238 16.0078 21.2256 15.9613 21.2126C15.9364 21.2056 15.9115 21.1984 15.8867 21.1911C15.8516 21.1807 15.8165 21.1702 15.7815 21.1592C15.7514 21.1497 15.7215 21.1399 15.6917 21.13C15.672 21.1234 15.6525 21.1166 15.6329 21.1099C13.3923 20.3343 11.7788 18.2031 11.7788 15.7019C11.7788 12.5473 14.3453 9.98075 17.5 9.98075C20.6546 9.98075 23.2211 12.5473 23.2211 15.7019C23.2211 18.2031 21.6076 20.3343 19.3669 21.11Z" fill="#717171"/>
<path d="M20.4094 15.7018L21.3305 13.9705C21.41 13.8212 21.4068 13.6415 21.3222 13.495C21.2377 13.3486 21.0836 13.256 20.9145 13.2501L18.9547 13.1822L17.916 11.519C17.8264 11.3755 17.6692 11.2883 17.5 11.2883C17.3309 11.2883 17.1737 11.3755 17.0841 11.519L16.0454 13.1822L14.0856 13.2501C13.9166 13.256 13.7625 13.3486 13.6779 13.495C13.5933 13.6415 13.5902 13.8212 13.6697 13.9705L14.5908 15.7018L13.6697 17.433C13.5902 17.5823 13.5933 17.762 13.6779 17.9085C13.7625 18.0549 13.9166 18.1475 14.0856 18.1534L16.0454 18.2213L17.0841 19.8846C17.1737 20.028 17.3309 20.1152 17.5 20.1152C17.6692 20.1152 17.8264 20.028 17.916 19.8846L18.9547 18.2213L20.9145 18.1534C21.0835 18.1475 21.2376 18.0549 21.3222 17.9085C21.4068 17.762 21.4099 17.5823 21.3304 17.433L20.4094 15.7018ZM18.66 17.2501C18.497 17.2558 18.3474 17.3421 18.2611 17.4805L17.5 18.6991L16.7391 17.4805C16.6527 17.3422 16.5031 17.2558 16.3401 17.2502L14.9044 17.2004L15.5791 15.9321C15.6558 15.7881 15.6558 15.6154 15.5791 15.4714L14.9044 14.2031L16.3401 14.1534C16.5031 14.1477 16.6527 14.0614 16.7391 13.923L17.5 12.7045L18.261 13.923C18.3474 14.0614 18.497 14.1477 18.66 14.1534L20.0957 14.2032L19.421 15.4715C19.3444 15.6155 19.3444 15.7881 19.421 15.9321L20.0958 17.2004L18.66 17.2501Z" fill="#717171"/>
</svg>
