<svg width="35" height="35" viewBox="0 0 35 35" fill="none" xmlns="http://www.w3.org/2000/svg">
<rect width="35" height="35" rx="17.5" fill="#F4F4F4"/>
<path d="M17.5 13.2244C15.9645 13.2244 14.7152 14.4736 14.7152 16.0091C14.7152 17.5446 15.9645 18.7939 17.5 18.7939C19.0355 18.7939 20.2847 17.5446 20.2847 16.0091C20.2847 14.4736 19.0355 13.2244 17.5 13.2244ZM17.5 17.6214C16.611 17.6214 15.8878 16.8981 15.8878 16.0091C15.8878 15.1201 16.611 14.3969 17.5 14.3969C18.389 14.3969 19.1122 15.1201 19.1122 16.0091C19.1122 16.8981 18.389 17.6214 17.5 17.6214Z" fill="#717171"/>
<path d="M17.5 10C14.1865 10 11.4908 12.6958 11.4908 16.0092V16.1753C11.4908 17.8511 12.4515 19.8039 14.3464 21.9794C15.7201 23.5565 17.0746 24.6562 17.1315 24.7023L17.5 25L17.8684 24.7023C17.9254 24.6563 19.2799 23.5566 20.6535 21.9795C22.5484 19.8039 23.5092 17.8512 23.5092 16.1754V16.0093C23.5092 12.6958 20.8135 10 17.5 10ZM22.3367 16.1754C22.3367 19.0074 18.6877 22.4355 17.5 23.4762C16.3119 22.4352 12.6633 19.0071 12.6633 16.1754V16.0093C12.6633 13.3423 14.833 11.1725 17.5 11.1725C20.1669 11.1725 22.3367 13.3423 22.3367 16.0093V16.1754Z" fill="#717171"/>
</svg>
