<svg width="35" height="35" viewBox="0 0 35 35" fill="none" xmlns="http://www.w3.org/2000/svg">
<rect width="35" height="35" rx="17.5" fill="#FF5959"/>
<path d="M23.7612 14.8085H23.4709C23.3537 14.8085 23.2403 14.8252 23.1328 14.8558C23.0232 14.2841 22.5196 13.8507 21.9164 13.8507H21.6261C20.943 13.8507 20.3873 14.4064 20.3873 15.0894V17.0889H14.6127V14.8445C14.6127 14.1615 14.0569 13.6058 13.3739 13.6058H13.0836C12.4804 13.6058 11.9768 14.0392 11.8673 14.6109C11.7597 14.5803 11.6463 14.5636 11.5291 14.5636H11.2388C10.5557 14.5636 10 15.1193 10 15.8024V20.9528C10 21.6358 10.5557 22.1915 11.2388 22.1915H11.5291C11.6463 22.1915 11.7597 22.1748 11.8672 22.1442C11.9768 22.7159 12.4804 23.1493 13.0836 23.1493H13.3739C14.0569 23.1493 14.6126 22.5936 14.6126 21.9106V20.1117H20.3873V22.1555C20.3873 22.8386 20.943 23.3943 21.6261 23.3943H21.9164C22.5196 23.3943 23.0232 22.9608 23.1327 22.3891C23.2403 22.4197 23.3537 22.4364 23.4709 22.4364H23.7612C24.4442 22.4364 25 21.8807 25 21.1977V16.0473C25 15.3642 24.4443 14.8085 23.7612 14.8085ZM11.8449 20.9528C11.8449 21.1269 11.7032 21.2686 11.5291 21.2686H11.2388C11.0646 21.2686 10.923 21.1269 10.923 20.9528V15.8024C10.923 15.6282 11.0646 15.4866 11.2388 15.4866H11.5291C11.7032 15.4866 11.8449 15.6282 11.8449 15.8024V20.9528ZM13.6897 21.9106C13.6897 22.0848 13.5481 22.2264 13.3739 22.2264H13.0836C12.9095 22.2264 12.7678 22.0848 12.7678 21.9106V14.8445C12.7678 14.6703 12.9095 14.5287 13.0836 14.5287H13.3739C13.5481 14.5287 13.6897 14.6703 13.6897 14.8445V21.9106ZM20.3873 19.1888H14.6127V18.0118H20.3873V19.1888H20.3873ZM22.2322 22.1555C22.2322 22.3297 22.0905 22.4713 21.9164 22.4713H21.6261C21.4519 22.4713 21.3102 22.3297 21.3102 22.1555V15.0894C21.3102 14.9153 21.4519 14.7736 21.6261 14.7736H21.9164C22.0905 14.7736 22.2322 14.9153 22.2322 15.0894V22.1555ZM24.077 21.1976C24.077 21.3718 23.9354 21.5134 23.7612 21.5134H23.4709C23.2968 21.5134 23.1551 21.3718 23.1551 21.1976V16.0473C23.1551 15.8731 23.2968 15.7315 23.4709 15.7315H23.7612C23.9354 15.7315 24.077 15.8731 24.077 16.0473V21.1976Z" fill="white"/>
</svg>
