<svg width="35" height="35" viewBox="0 0 35 35" fill="none" xmlns="http://www.w3.org/2000/svg">
<rect width="35" height="35" rx="17.5" fill="#33A0DD"/>
<g clip-path="url(#clip0)">
<path d="M24.7182 23.2976L23.9132 21.1795H21.7046V20.116H24.5391V19.0613H23.74L23.2123 15.9836C22.9777 14.6158 21.8003 13.6231 20.4125 13.6231H18.5273V12.7024H19.4766V11.6477H16.5234V12.7024H17.4727V13.6231H15.5875C14.1997 13.6231 13.0223 14.6158 12.7877 15.9836L12.26 19.0613H11.4609V20.116H14.2954V21.1795H12.3593L11.5542 23.2976H9V24.3523H27V23.2976H24.7182ZM13.3301 19.0613L13.8272 16.1618C13.9747 15.3019 14.715 14.6778 15.5875 14.6778H20.4125C21.285 14.6778 22.0253 15.3019 22.1728 16.1618L22.6699 19.0613H13.3301ZM15.3501 20.116H20.6499V21.1795H15.3501V20.116ZM12.6825 23.2976L13.0867 22.2342H23.1858L23.5899 23.2976H12.6825Z" fill="white"/>
<path d="M22.8914 13.1982L23.6282 12.3256L24.4339 13.0058L23.6972 13.8785L22.8914 13.1982Z" fill="white"/>
<path d="M24.0629 14.4209L25.1229 13.9937L25.5174 14.9724L24.4574 15.3996L24.0629 14.4209Z" fill="white"/>
<path d="M11.5651 13.0017L12.3708 12.3215L13.1076 13.1941L12.3018 13.8744L11.5651 13.0017Z" fill="white"/>
<path d="M10.4945 14.9812L10.8889 14.0025L11.9489 14.4297L11.5545 15.4084L10.4945 14.9812Z" fill="white"/>
</g>
<defs>
<clipPath id="clip0">
<rect width="18" height="18" fill="white" transform="translate(9 9)"/>
</clipPath>
</defs>
</svg>
