<svg width="35" height="35" viewBox="0 0 35 35" fill="none" xmlns="http://www.w3.org/2000/svg">
<rect width="35" height="35" rx="17.5" fill="#DD33A3"/>
<g clip-path="url(#clip0)">
<path d="M24.2952 15.1586C24.2952 14.8998 24.0854 14.6899 23.8265 14.6899H22.6334C22.326 11.2946 18.8313 9.11394 15.64 10.3494C15.3987 10.4429 15.2788 10.7143 15.3722 10.9556C15.4657 11.197 15.7371 11.3169 15.9785 11.2235C18.7323 10.1573 21.7176 12.1992 21.7176 15.1586C21.7176 17.4843 19.8255 19.3763 17.4999 19.3763C15.1117 19.3763 13.1913 17.3829 13.2853 14.9963C13.303 14.5443 12.7293 14.3309 12.448 14.6899H11.1732C10.9144 14.6899 10.7046 14.8998 10.7046 15.1586C10.7046 18.8067 13.549 21.7021 17.0312 21.9377V24.0627H15.391C15.1322 24.0627 14.9224 24.2726 14.9224 24.5314C14.9224 24.7902 15.1322 25 15.391 25H19.6088C19.8676 25 20.0774 24.7902 20.0774 24.5314C20.0774 24.2726 19.8676 24.0627 19.6088 24.0627H17.9685V21.9377C21.4532 21.7018 24.2952 18.8045 24.2952 15.1586ZM11.6604 15.6272H12.3664C12.6039 18.2509 14.8154 20.3136 17.4999 20.3136C20.1844 20.3136 22.3958 18.2509 22.6334 15.6272H23.3393C23.0998 18.6391 20.5722 21.0166 17.4999 21.0166C14.4275 21.0166 11.8999 18.6391 11.6604 15.6272Z" fill="white"/>
<path d="M11.8761 13.284C12.9098 13.284 13.7507 14.1249 13.7507 15.1586C13.7507 15.4174 13.9605 15.6272 14.2193 15.6272C14.4781 15.6272 14.6879 15.4174 14.6879 15.1586C14.6879 14.1243 15.5248 13.284 16.5625 13.284C16.8213 13.284 17.0311 13.0742 17.0311 12.8154C17.0311 12.5566 16.8213 12.3467 16.5625 12.3467C15.5282 12.3467 14.6879 11.5099 14.6879 10.4722C14.6879 10.2134 14.4781 10.0035 14.2193 10.0035C13.9605 10.0035 13.7507 10.2134 13.7507 10.4722C13.7507 11.5062 12.9139 12.3467 11.8761 12.3467C11.6173 12.3467 11.4075 12.5566 11.4075 12.8154C11.4075 13.0742 11.6173 13.284 11.8761 13.284ZM14.2193 12.0279C14.424 12.3349 14.6924 12.6058 15.0067 12.8154C14.6959 13.0226 14.4257 13.2927 14.2183 13.6043C14.0106 13.2924 13.7423 13.024 13.4304 12.8164C13.7311 12.6161 14.0049 12.3496 14.2193 12.0279Z" fill="white"/>
<path d="M18.8088 12.9527L15.294 16.4675C15.111 16.6505 15.111 16.9472 15.294 17.1303C15.477 17.3133 15.7737 17.3133 15.9568 17.1303L19.4715 13.6155C19.6546 13.4324 19.6546 13.1357 19.4715 12.9527C19.2885 12.7697 18.9918 12.7697 18.8088 12.9527Z" fill="white"/>
<path d="M19.0432 15.2958L17.6373 16.7017C17.4542 16.8848 17.4542 17.1815 17.6373 17.3645C17.8203 17.5475 18.117 17.5475 18.3 17.3645L19.7059 15.9586C19.889 15.7756 19.889 15.4789 19.7059 15.2958C19.5229 15.1128 19.2262 15.1128 19.0432 15.2958Z" fill="white"/>
</g>
<defs>
<clipPath id="clip0">
<rect width="15" height="15" fill="white" transform="translate(10 10)"/>
</clipPath>
</defs>
</svg>
