<svg width="35" height="35" viewBox="0 0 35 35" fill="none" xmlns="http://www.w3.org/2000/svg">
<rect width="35" height="35" rx="17.5" fill="#33DDA0"/>
<path d="M22.8736 23.457L22.0825 14.6474C22.0609 14.4068 21.8593 14.2225 21.6178 14.2225H19.9864V13.4868C19.9864 12.1156 18.8709 11 17.4998 11C16.1287 11 15.0133 12.1156 15.0133 13.4868V14.2225H13.3809C13.1394 14.2225 12.9377 14.4068 12.9161 14.6474L12.122 23.4916C12.1103 23.6222 12.154 23.7515 12.2424 23.8482C12.3308 23.9449 12.4558 23.9999 12.5867 23.9999H22.412C22.4124 23.9999 22.4129 23.9999 22.4132 23.9999C22.671 23.9999 22.8798 23.791 22.8798 23.5333C22.8798 23.5074 22.8777 23.4818 22.8736 23.457ZM15.9465 13.4868C15.9465 12.6301 16.6433 11.9332 17.4999 11.9332C18.3564 11.9332 19.0533 12.6301 19.0533 13.4868V14.2225H15.9465V13.4868ZM13.0971 23.0668L13.8075 15.1557H15.0133V15.9902C15.0133 16.2478 15.2222 16.4568 15.4799 16.4568C15.7377 16.4568 15.9465 16.2478 15.9465 15.9902V15.1557H19.0533V15.9902C19.0533 16.2478 19.2621 16.4568 19.5199 16.4568C19.7776 16.4568 19.9865 16.2478 19.9865 15.9902V15.1557H21.1912L21.9016 23.0668H13.0971Z" fill="white"/>
</svg>
