<svg width="20" height="16" viewBox="0 0 20 16" fill="none" xmlns="http://www.w3.org/2000/svg">
<path d="M18.2031 4.375H15.625V1.40625C15.625 0.63082 14.9942 0 14.2188 0H5.78125C5.00582 0 4.375 0.63082 4.375 1.40625V4.375H1.79688C0.806094 4.375 0 5.18109 0 6.17188V13.8281C0 14.8189 0.806094 15.625 1.79688 15.625H5.625H14.375H18.2031C19.1939 15.625 20 14.8189 20 13.8281V6.17188C20 5.18109 19.1939 4.375 18.2031 4.375ZM5.625 1.40625C5.625 1.32008 5.69508 1.25 5.78125 1.25H14.2188C14.3049 1.25 14.375 1.32008 14.375 1.40625V4.375H5.625V1.40625ZM6.25 14.375V13.2812C6.25 13.1951 6.32008 13.125 6.40625 13.125H13.5938C13.6799 13.125 13.75 13.1951 13.75 13.2812V14.375H6.25ZM18.75 13.8281C18.75 14.1297 18.5047 14.375 18.2031 14.375H15V13.2812C15 12.5058 14.3692 11.875 13.5938 11.875H6.40625C5.63082 11.875 5 12.5058 5 13.2812V14.375H1.79688C1.49531 14.375 1.25 14.1297 1.25 13.8281V6.17188C1.25 5.87031 1.49531 5.625 1.79688 5.625H5H15H18.2031C18.5047 5.625 18.75 5.87031 18.75 6.17188V13.8281Z" fill="white"/>
<path d="M4.3752 8.75C4.03004 8.75 3.75 8.47016 3.75 8.125C3.75 7.77984 4.02961 7.5 4.3748 7.5H4.3752C4.72035 7.5 5.0002 7.77984 5.0002 8.125C5.0002 8.47016 4.72035 8.75 4.3752 8.75Z" fill="white"/>
</svg>
